# xmcd
#
# Track frame offsets: 
#        150
#        10920
#        21470
#        36380
#        47974
#        66186
#        77957
#        93375
#        114378
#        128139
#        138679
#        147551
#        159499
#        172732
#        182781
#        196035
#        204592
#        214100
#        223940
#        240216
#        251970
#        264487
#        275532
#        289438
#        300390
#
# Disc length: 4257 seconds
#
# Revision: 2
# Processed by: cddbd v1.5.2PL0 Copyright (c) Steve Scherf et al.
# Submitted via: ExactAudioCopy v0.99pb5
#
DISCID=81109f19
DTITLE=Various Artist - Charlie Gillett's Radio Picks - Honky Tonk Volume 2
DYEAR=1975
DGENRE=Country
TTITLE0=Tom T Hall - Tulsa Telephone Book
TTITLE1=Roy Brown - Saturday Night
TTITLE2=Travis Wammack - Love Being Your Fool
TTITLE3=Archie Bleyer - Hernando's Hideaway
TTITLE4=Billy Swan - I Can Help
TTITLE5=Little Junior's Blue Flames - Love My Baby
TTITLE6=Roy Buchanan - Sweet Dreams
TTITLE7=Marty Robbins - El Paso
TTITLE8=Kate and Anna McGarrigle - Foolish You
TTITLE9=Leroy Van Dyke - Walk On By
TTITLE10=Dp "Elvis" Costello - Walk On By
TTITLE11=Irma Thomas - Ruler of My Heart
TTITLE12=Dr. John - Such a Night
TTITLE13=Ricky Nelson - Milk Cow Blues
TTITLE14=Jona Lewie - The Swan
TTITLE15=Dennis Turner - Lover Please
TTITLE16=Johnnie Allan - The Promised Land
TTITLE17=Ike and Tina Turner - Goodbye, So Long
TTITLE18=Paul Kelly - Stealing in the Name of the Lord
TTITLE19=The 5 Royales - Think
TTITLE20=Betty Wright - Clean Up Woman
TTITLE21=Billy "The Kid" Emerson - Red Hot
TTITLE22=Sir Douglas Quintet - Nitty Gritty
TTITLE23=Professor Longhair - Tipitina
TTITLE24=Rico - Ramble
EXTD=
EXTT0=
EXTT1=
EXTT2=
EXTT3=
EXTT4=
EXTT5=
EXTT6=
EXTT7=
EXTT8=
EXTT9=
EXTT10=
EXTT11=
EXTT12=
EXTT13=
EXTT14=
EXTT15=
EXTT16=
EXTT17=
EXTT18=
EXTT19=
EXTT20=
EXTT21=
EXTT22=
EXTT23=
EXTT24=
PLAYORDER=
